<svg width="64" height="64" viewBox="0 0 64 64" fill="none" xmlns="http://www.w3.org/2000/svg">
  <defs>
    <radialGradient id="antGlow" cx="50%" cy="50%" r="60%">
      <stop offset="0%" style="stop-color:#FF0000;stop-opacity:1" />
      <stop offset="50%" style="stop-color:#DC143C;stop-opacity:0.8" />
      <stop offset="100%" style="stop-color:#8B0000;stop-opacity:0.4" />
    </radialGradient>
    <linearGradient id="antBody" x1="0%" y1="0%" x2="100%" y2="100%">
      <stop offset="0%" style="stop-color:#2F2F2F;stop-opacity:1" />
      <stop offset="50%" style="stop-color:#000000;stop-opacity:1" />
      <stop offset="100%" style="stop-color:#1a1a1a;stop-opacity:1" />
    </linearGradient>
  </defs>

  <!-- Ant head -->
  <ellipse cx="32" cy="18" rx="8" ry="6" fill="url(#antBody)"/>
  <ellipse cx="32" cy="20" rx="6" ry="4" fill="#000000"/>
  <ellipse cx="32" cy="22" rx="4" ry="3" fill="url(#antBody)"/>

  <!-- Ant eyes -->
  <circle cx="28" cy="16" r="1.5" fill="#FFFFFF"/>
  <circle cx="36" cy="16" r="1.5" fill="#FFFFFF"/>
  <circle cx="28" cy="16" r="0.8" fill="#000000"/>
  <circle cx="36" cy="16" r="0.8" fill="#000000"/>
  <circle cx="28" cy="16" r="0.4" fill="#FFFFFF"/>
  <circle cx="36" cy="16" r="0.4" fill="#FFFFFF"/>

  <!-- Ant antennae -->
  <path d="M26 14L24 10L22 12L24 8L26 10L28 8" stroke="#000000" stroke-width="1" fill="none"/>
  <path d="M38 14L40 10L42 12L40 8L38 10L36 8" stroke="#000000" stroke-width="1" fill="none"/>
  <circle cx="24" cy="10" r="0.5" fill="#000000"/>
  <circle cx="40" cy="10" r="0.5" fill="#000000"/>

  <!-- Ant thorax -->
  <ellipse cx="32" cy="28" rx="10" ry="8" fill="url(#antBody)"/>
  <ellipse cx="32" cy="30" rx="8" ry="6" fill="#000000"/>
  <ellipse cx="32" cy="32" rx="6" ry="4" fill="url(#antBody)"/>

  <!-- Ant abdomen -->
  <ellipse cx="32" cy="40" rx="12" ry="10" fill="url(#antBody)"/>
  <ellipse cx="32" cy="42" rx="10" ry="8" fill="#000000"/>
  <ellipse cx="32" cy="44" rx="8" ry="6" fill="url(#antBody)"/>

  <!-- Ant legs with details -->
  <path d="M22 26L18 24L14 26L16 30L20 28L24 30" stroke="#000000" stroke-width="1.5" fill="none"/>
  <path d="M42 26L46 24L50 26L48 30L44 28L40 30" stroke="#000000" stroke-width="1.5" fill="none"/>
  <path d="M24 34L20 32L16 34L18 38L22 36L26 38" stroke="#000000" stroke-width="1.5" fill="none"/>
  <path d="M40 34L44 32L48 34L46 38L42 36L38 38" stroke="#000000" stroke-width="1.5" fill="none"/>
  <path d="M26 42L22 40L18 42L20 46L24 44L28 46" stroke="#000000" stroke-width="1.5" fill="none"/>
  <path d="M38 42L42 40L46 42L44 46L40 44L36 46" stroke="#000000" stroke-width="1.5" fill="none"/>

  <!-- Ant leg joints -->
  <circle cx="18" cy="24" r="0.8" fill="#000000"/>
  <circle cx="46" cy="24" r="0.8" fill="#000000"/>
  <circle cx="20" cy="32" r="0.8" fill="#000000"/>
  <circle cx="44" cy="32" r="0.8" fill="#000000"/>
  <circle cx="22" cy="40" r="0.8" fill="#000000"/>
  <circle cx="42" cy="40" r="0.8" fill="#000000"/>

  <!-- Pym Particles effect -->
  <circle cx="16" cy="20" r="1" fill="url(#antGlow)" opacity="0.7"/>
  <circle cx="48" cy="20" r="1" fill="url(#antGlow)" opacity="0.7"/>
  <circle cx="20" cy="48" r="0.8" fill="url(#antGlow)" opacity="0.6"/>
  <circle cx="44" cy="48" r="0.8" fill="url(#antGlow)" opacity="0.6"/>
  <circle cx="12" cy="32" r="0.6" fill="url(#antGlow)" opacity="0.8"/>
  <circle cx="52" cy="32" r="0.6" fill="url(#antGlow)" opacity="0.8"/>
</svg>
