<svg width="64" height="64" viewBox="0 0 64 64" fill="none" xmlns="http://www.w3.org/2000/svg">
  <defs>
    <linearGradient id="batGradient" x1="0%" y1="0%" x2="100%" y2="100%">
      <stop offset="0%" style="stop-color:#2c2c2c;stop-opacity:1" />
      <stop offset="50%" style="stop-color:#1a1a1a;stop-opacity:1" />
      <stop offset="100%" style="stop-color:#000000;stop-opacity:1" />
    </linearGradient>
    <radialGradient id="eyeGlow" cx="50%" cy="50%" r="50%">
      <stop offset="0%" style="stop-color:#FFD700;stop-opacity:1" />
      <stop offset="70%" style="stop-color:#FFA500;stop-opacity:0.8" />
      <stop offset="100%" style="stop-color:#FF8C00;stop-opacity:0.3" />
    </radialGradient>
  </defs>

  <!-- Main bat silhouette with gradient -->
  <path d="M32 4C30 6 26 8 24 10C22 12 20 14 18 16C16 18 14 20 12 22C10 24 8 26 6 28C4 30 2 32 4 34C6 36 8 38 10 40C12 42 14 44 16 46C18 48 20 50 22 52C24 54 26 56 28 58C30 60 32 62 34 60C36 58 38 56 40 54C42 52 44 50 46 48C48 46 50 44 52 42C54 40 56 38 58 36C60 34 62 32 60 30C58 28 56 26 54 24C52 22 50 20 48 18C46 16 44 14 42 12C40 10 38 8 36 6C34 4 32 2 32 4Z" fill="url(#batGradient)"/>
  <path d="M32 4C30 6 28 8 26 10C24 12 22 14 20 16C18 18 16 20 14 22C12 24 10 26 8 28C6 30 4 32 6 34C8 36 10 38 12 40C14 42 16 44 18 46C20 48 22 50 24 52C26 54 28 56 30 58C32 60 32 62 32 60C32 58 32 56 32 54C32 52 32 50 32 48C32 46 32 44 32 42C32 40 32 38 32 36C32 34 32 32 32 30C32 28 32 26 32 24C32 22 32 20 32 18C32 16 32 14 32 12C32 10 32 8 32 6C32 4 32 2 32 4Z" fill="#000000" opacity="0.3"/>

  <!-- Detailed bat wings -->
  <path d="M16 20C14 22 12 24 10 26C8 28 6 30 8 32C10 34 12 36 14 38C16 40 18 42 16 44C14 46 12 48 14 50C16 52 18 54 20 52C22 50 24 48 22 46C20 44 18 42 20 40C22 38 24 36 22 34C20 32 18 30 20 28C22 26 24 24 22 22C20 20 18 18 16 20Z" fill="#0f0f0f"/>
  <path d="M48 20C50 22 52 24 54 26C56 28 58 30 56 32C54 34 52 36 50 38C48 40 46 42 48 44C50 46 52 48 50 50C48 52 46 54 44 52C42 50 40 48 42 46C44 44 46 42 44 40C42 38 40 36 42 34C44 32 46 30 44 28C42 26 40 24 42 22C44 20 46 18 48 20Z" fill="#0f0f0f"/>

  <!-- Bat emblem on chest -->
  <ellipse cx="32" cy="32" rx="6" ry="8" fill="#FFD700"/>
  <ellipse cx="32" cy="32" rx="4" ry="6" fill="#000000"/>
  <ellipse cx="32" cy="32" rx="2" ry="4" fill="#FFD700"/>

  <!-- Glowing eyes -->
  <circle cx="26" cy="18" r="3" fill="url(#eyeGlow)"/>
  <circle cx="38" cy="18" r="3" fill="url(#eyeGlow)"/>
  <circle cx="26" cy="18" r="1.5" fill="#FFFFFF"/>
  <circle cx="38" cy="18" r="1.5" fill="#FFFFFF"/>

  <!-- Wing membrane details -->
  <path d="M12 28L16 30L20 32L16 34L12 32L12 28Z" fill="#1a1a1a" opacity="0.7"/>
  <path d="M52 28L48 30L44 32L48 34L52 32L52 28Z" fill="#1a1a1a" opacity="0.7"/>
  <path d="M8 36L12 38L16 40L12 42L8 40L8 36Z" fill="#0f0f0f" opacity="0.5"/>
  <path d="M56 36L52 38L48 40L52 42L56 40L56 36Z" fill="#0f0f0f" opacity="0.5"/>
</svg>
