<svg width="64" height="64" viewBox="0 0 64 64" fill="none" xmlns="http://www.w3.org/2000/svg">
  <defs>
    <radialGradient id="widowGlow" cx="50%" cy="50%" r="60%">
      <stop offset="0%" style="stop-color:#DC143C;stop-opacity:1" />
      <stop offset="50%" style="stop-color:#B22222;stop-opacity:0.8" />
      <stop offset="100%" style="stop-color:#8B0000;stop-opacity:0.4" />
    </radialGradient>
    <linearGradient id="suitGradient" x1="0%" y1="0%" x2="100%" y2="100%">
      <stop offset="0%" style="stop-color:#2F2F2F;stop-opacity:1" />
      <stop offset="50%" style="stop-color:#000000;stop-opacity:1" />
      <stop offset="100%" style="stop-color:#1a1a1a;stop-opacity:1" />
    </linearGradient>
    <linearGradient id="hourglassGradient" x1="0%" y1="0%" x2="100%" y2="100%">
      <stop offset="0%" style="stop-color:#DC143C;stop-opacity:1" />
      <stop offset="50%" style="stop-color:#B22222;stop-opacity:1" />
      <stop offset="100%" style="stop-color:#8B0000;stop-opacity:1" />
    </linearGradient>
  </defs>

  <!-- Sleek black suit outline -->
  <path d="M28 8C26 10 24 12 24 16C24 20 26 24 28 28C30 32 28 36 28 40C28 44 26 48 24 52C24 56 26 58 28 60C30 58 32 56 32 52C32 48 30 44 32 40C32 36 34 32 32 28C34 24 36 20 36 16C36 12 34 10 32 8C30 10 28 8 28 8Z" fill="url(#suitGradient)"/>
  <path d="M30 10C29 12 28 14 28 16C28 20 30 24 32 28C34 32 32 36 32 40C32 44 30 48 28 52C28 56 30 58 32 60C34 58 36 56 36 52C36 48 34 44 36 40C36 36 38 32 36 28C38 24 40 20 40 16C40 14 39 12 38 10C34 12 30 10 30 10Z" fill="#000000" opacity="0.6"/>

  <!-- Hourglass symbol - top bulb -->
  <ellipse cx="32" cy="18" rx="8" ry="6" fill="url(#hourglassGradient)"/>
  <ellipse cx="32" cy="20" rx="6" ry="4" fill="#000000" opacity="0.3"/>
  <ellipse cx="32" cy="22" rx="4" ry="2" fill="url(#hourglassGradient)"/>

  <!-- Hourglass neck -->
  <rect x="30" y="24" width="4" height="16" fill="url(#hourglassGradient)"/>
  <rect x="31" y="26" width="2" height="12" fill="#000000" opacity="0.4"/>
  <rect x="31.5" y="28" width="1" height="8" fill="url(#hourglassGradient)"/>

  <!-- Hourglass symbol - bottom bulb -->
  <ellipse cx="32" cy="46" rx="8" ry="6" fill="url(#hourglassGradient)"/>
  <ellipse cx="32" cy="44" rx="6" ry="4" fill="#000000" opacity="0.3"/>
  <ellipse cx="32" cy="42" rx="4" ry="2" fill="url(#hourglassGradient)"/>

  <!-- Hourglass sand particles -->
  <circle cx="30" cy="16" r="0.8" fill="#FFFFFF" opacity="0.7"/>
  <circle cx="34" cy="18" r="0.6" fill="#FFFFFF" opacity="0.6"/>
  <circle cx="28" cy="20" r="0.5" fill="#FFFFFF" opacity="0.8"/>
  <circle cx="36" cy="22" r="0.7" fill="#FFFFFF" opacity="0.5"/>
  <circle cx="30" cy="48" r="0.8" fill="#FFFFFF" opacity="0.7"/>
  <circle cx="34" cy="46" r="0.6" fill="#FFFFFF" opacity="0.6"/>
  <circle cx="28" cy="44" r="0.5" fill="#FFFFFF" opacity="0.8"/>
  <circle cx="36" cy="42" r="0.7" fill="#FFFFFF" opacity="0.5"/>

  <!-- Web pattern on suit -->
  <path d="M24 16C26 18 28 20 30 18C32 20 34 18 36 20C38 18 40 20 42 18" fill="none" stroke="#DC143C" stroke-width="0.5" opacity="0.6"/>
  <path d="M24 20C26 22 28 24 30 22C32 24 34 22 36 24C38 22 40 24 42 22" fill="none" stroke="#DC143C" stroke-width="0.3" opacity="0.4"/>
  <path d="M24 44C26 42 28 40 30 42C32 40 34 42 36 40C38 42 40 40 42 42" fill="none" stroke="#DC143C" stroke-width="0.5" opacity="0.6"/>
  <path d="M24 40C26 38 28 36 30 38C32 36 34 38 36 36C38 38 40 36 42 38" fill="none" stroke="#DC143C" stroke-width="0.3" opacity="0.4"/>

  <!-- Widow's bite emblem -->
  <circle cx="32" cy="32" r="3" fill="url(#widowGlow)"/>
  <circle cx="32" cy="32" r="2" fill="#000000"/>
  <circle cx="32" cy="32" r="1" fill="url(#widowGlow)"/>
  <circle cx="30" cy="30" r="0.5" fill="#DC143C" opacity="0.8"/>
  <circle cx="34" cy="30" r="0.5" fill="#DC143C" opacity="0.8"/>
  <circle cx="32" cy="34" r="0.5" fill="#DC143C" opacity="0.8"/>

  <!-- Suit highlights -->
  <path d="M26 14C28 16 30 18 32 16C34 18 36 16 38 14" fill="none" stroke="#FFFFFF" stroke-width="0.5" opacity="0.3"/>
  <path d="M26 50C28 48 30 46 32 48C34 46 36 48 38 50" fill="none" stroke="#FFFFFF" stroke-width="0.5" opacity="0.3"/>
  <ellipse cx="32" cy="32" rx="10" ry="20" fill="none" stroke="#DC143C" stroke-width="0.3" opacity="0.4"/>
</svg>
