<svg width="64" height="64" viewBox="0 0 64 64" fill="none" xmlns="http://www.w3.org/2000/svg">
  <defs>
    <radialGradient id="pantherGlow" cx="50%" cy="30%" r="80%">
      <stop offset="0%" style="stop-color:#FFD700;stop-opacity:1" />
      <stop offset="40%" style="stop-color:#FFA500;stop-opacity:0.8" />
      <stop offset="80%" style="stop-color:#FF8C00;stop-opacity:0.6" />
      <stop offset="100%" style="stop-color:#FFD700;stop-opacity:0.2" />
    </radialGradient>
    <linearGradient id="pantherFur" x1="0%" y1="0%" x2="100%" y2="100%">
      <stop offset="0%" style="stop-color:#2F2F2F;stop-opacity:1" />
      <stop offset="50%" style="stop-color:#000000;stop-opacity:1" />
      <stop offset="100%" style="stop-color:#1a1a1a;stop-opacity:1" />
    </linearGradient>
    <radialGradient id="eyeShine" cx="50%" cy="50%" r="50%">
      <stop offset="0%" style="stop-color:#FFFFFF;stop-opacity:1" />
      <stop offset="70%" style="stop-color:#F0F0F0;stop-opacity:0.8" />
      <stop offset="100%" style="stop-color:#FFD700;stop-opacity:0.6" />
    </radialGradient>
  </defs>

  <!-- Panther body silhouette -->
  <path d="M32 8C28 10 24 14 20 18C18 22 16 26 18 30C20 34 24 38 28 40C32 42 36 40 40 38C44 36 46 32 44 28C42 24 38 20 34 16C32 12 32 8 32 8Z" fill="url(#pantherFur)"/>
  <path d="M32 10C29 12 26 16 24 20C22 24 20 28 22 32C24 36 28 38 32 40C36 38 40 36 42 32C44 28 42 24 38 20C36 16 33 12 32 10Z" fill="#000000" opacity="0.8"/>
  <path d="M32 12C30 14 28 18 26 22C24 26 26 30 28 32C30 34 32 36 34 34C36 32 38 30 36 26C34 22 32 18 32 12Z" fill="url(#pantherFur)"/>

  <!-- Panther head details -->
  <ellipse cx="32" cy="18" rx="14" ry="12" fill="url(#pantherFur)"/>
  <ellipse cx="32" cy="20" rx="12" ry="10" fill="#000000"/>
  <ellipse cx="32" cy="22" rx="10" ry="8" fill="url(#pantherFur)"/>
  <ellipse cx="32" cy="24" rx="8" ry="6" fill="#000000" opacity="0.6"/>

  <!-- Panther ears -->
  <path d="M24 14L28 12L26 16L24 14Z" fill="url(#pantherFur)"/>
  <path d="M40 14L36 12L38 16L40 14Z" fill="url(#pantherFur)"/>
  <path d="M25 15L27 13L26 17L25 15Z" fill="#000000"/>
  <path d="M39 15L37 13L38 17L39 15Z" fill="#000000"/>

  <!-- Panther eyes -->
  <ellipse cx="28" cy="20" rx="2" ry="3" fill="url(#eyeShine)"/>
  <ellipse cx="36" cy="20" rx="2" ry="3" fill="url(#eyeShine)"/>
  <ellipse cx="28" cy="20" rx="1.5" ry="2" fill="#000000"/>
  <ellipse cx="36" cy="20" rx="1.5" ry="2" fill="#000000"/>
  <ellipse cx="28" cy="20" rx="0.8" ry="1.5" fill="#FFFFFF"/>
  <ellipse cx="36" cy="20" rx="0.8" ry="1.5" fill="#FFFFFF"/>
  <circle cx="27" cy="19" r="0.3" fill="#FFD700"/>
  <circle cx="37" cy="19" r="0.3" fill="#FFD700"/>

  <!-- Panther nose and mouth -->
  <ellipse cx="32" cy="26" rx="2" ry="1.5" fill="#000000"/>
  <path d="M30 27L32 29L34 27" fill="none" stroke="#000000" stroke-width="0.8"/>
  <path d="M29 28L31 30L32 29L33 30L35 28" fill="none" stroke="#FFFFFF" stroke-width="0.5"/>
  <circle cx="30" cy="28" r="0.3" fill="#FFFFFF"/>
  <circle cx="34" cy="28" r="0.3" fill="#FFFFFF"/>

  <!-- Vibranium emblem on chest -->
  <circle cx="32" cy="32" r="3" fill="url(#pantherGlow)"/>
  <circle cx="32" cy="32" r="2" fill="#000000" opacity="0.4"/>
  <circle cx="32" cy="32" r="1" fill="url(#pantherGlow)"/>
  <circle cx="32" cy="32" r="0.5" fill="#FFFFFF"/>
  <circle cx="31" cy="31" r="0.2" fill="#FFD700"/>
  <circle cx="33" cy="31" r="0.2" fill="#FFD700"/>
  <circle cx="32" cy="33" r="0.2" fill="#FFD700"/>

  <!-- Panther fur texture -->
  <path d="M22 16C24 18 26 20 24 22C22 24 20 22 22 20C24 18 22 16 22 16Z" fill="none" stroke="#000000" stroke-width="0.5" opacity="0.6"/>
  <path d="M42 16C40 18 38 20 40 22C42 24 44 22 42 20C40 18 42 16 42 16Z" fill="none" stroke="#000000" stroke-width="0.5" opacity="0.6"/>
  <path d="M26 24C28 26 30 28 28 30C26 32 24 30 26 28C28 26 26 24 26 24Z" fill="none" stroke="#000000" stroke-width="0.5" opacity="0.6"/>
  <path d="M38 24C36 26 34 28 36 30C38 32 40 30 38 28C36 26 38 24 38 24Z" fill="none" stroke="#000000" stroke-width="0.5" opacity="0.6"/>

  <!-- Wakandan energy particles -->
  <circle cx="20" cy="16" r="0.8" fill="url(#pantherGlow)" opacity="0.6"/>
  <circle cx="44" cy="16" r="0.8" fill="url(#pantherGlow)" opacity="0.6"/>
  <circle cx="24" cy="36" r="1" fill="url(#pantherGlow)" opacity="0.5"/>
  <circle cx="40" cy="36" r="1" fill="url(#pantherGlow)" opacity="0.5"/>
  <circle cx="16" cy="28" r="0.6" fill="url(#pantherGlow)" opacity="0.7"/>
  <circle cx="48" cy="28" r="0.6" fill="url(#pantherGlow)" opacity="0.7"/>
</svg>
