<svg width="64" height="64" viewBox="0 0 64 64" fill="none" xmlns="http://www.w3.org/2000/svg">
  <defs>
    <radialGradient id="shieldRim" cx="50%" cy="50%" r="60%">
      <stop offset="0%" style="stop-color:#C0C0C0;stop-opacity:1" />
      <stop offset="50%" style="stop-color:#A0A0A0;stop-opacity:1" />
      <stop offset="100%" style="stop-color:#808080;stop-opacity:1" />
    </radialGradient>
    <linearGradient id="redStripe" x1="0%" y1="0%" x2="100%" y2="100%">
      <stop offset="0%" style="stop-color:#DC143C;stop-opacity:1" />
      <stop offset="50%" style="stop-color:#B22222;stop-opacity:1" />
      <stop offset="100%" style="stop-color:#8B0000;stop-opacity:1" />
    </linearGradient>
    <linearGradient id="blueCenter" x1="0%" y1="0%" x2="100%" y2="100%">
      <stop offset="0%" style="stop-color:#4169E1;stop-opacity:1" />
      <stop offset="50%" style="stop-color:#0000CD;stop-opacity:1" />
      <stop offset="100%" style="stop-color:#00008B;stop-opacity:1" />
    </linearGradient>
    <radialGradient id="starGlow" cx="50%" cy="50%" r="50%">
      <stop offset="0%" style="stop-color:#FFFFFF;stop-opacity:1" />
      <stop offset="70%" style="stop-color:#F0F0F0;stop-opacity:0.8" />
      <stop offset="100%" style="stop-color:#E0E0E0;stop-opacity:0.6" />
    </radialGradient>
  </defs>

  <!-- Shield outer rim with metallic effect -->
  <circle cx="32" cy="32" r="30" fill="url(#shieldRim)"/>
  <circle cx="32" cy="32" r="28" fill="#000000" opacity="0.4"/>
  <circle cx="32" cy="32" r="26" fill="#F5F5F5" opacity="0.6"/>

  <!-- Red stripes with gradient -->
  <path d="M6 32A26 26 0 0 1 32 6A26 26 0 0 1 58 32A26 26 0 0 1 32 58A26 26 0 0 1 6 32Z" fill="url(#redStripe)"/>
  <path d="M10 32A22 22 0 0 1 32 10A22 22 0 0 1 54 32A22 22 0 0 1 32 54A22 22 0 0 1 10 32Z" fill="#FFFFFF"/>
  <path d="M14 32A18 18 0 0 1 32 14A18 18 0 0 1 50 32A18 18 0 0 1 32 50A18 18 0 0 1 14 32Z" fill="url(#blueCenter)"/>
  <path d="M18 32A14 14 0 0 1 32 18A14 14 0 0 1 46 32A14 14 0 0 1 32 46A14 14 0 0 1 18 32Z" fill="url(#redStripe)"/>
  <path d="M22 32A10 10 0 0 1 32 22A10 10 0 0 1 42 32A10 10 0 0 1 32 42A10 10 0 0 1 22 32Z" fill="#FFFFFF"/>
  <path d="M26 32A6 6 0 0 1 32 26A6 6 0 0 1 38 32A6 6 0 0 1 32 38A6 6 0 0 1 26 32Z" fill="url(#blueCenter)"/>

  <!-- The star -->
  <polygon points="32,20 34.5,25.5 40,25.5 35.5,29.5 37,35 32,31.5 27,35 28.5,29.5 24,25.5 29.5,25.5" fill="url(#starGlow)"/>
  <polygon points="32,22 33.5,26 37,26 34.3,28.5 35.2,32 32,29.5 28.8,32 29.7,28.5 27,26 30.5,26" fill="#FFFFFF" opacity="0.9"/>

  <!-- Star highlights -->
  <circle cx="32" cy="23" r="0.5" fill="#FFFFFF" opacity="0.8"/>
  <circle cx="35" cy="27" r="0.3" fill="#FFFFFF" opacity="0.7"/>
  <circle cx="29" cy="27" r="0.3" fill="#FFFFFF" opacity="0.7"/>
  <circle cx="32" cy="31" r="0.3" fill="#FFFFFF" opacity="0.7"/>

  <!-- Shield grip/handle -->
  <rect x="29" y="48" width="6" height="8" rx="1" fill="url(#shieldRim)"/>
  <rect x="30" y="50" width="4" height="6" rx="0.5" fill="#000000" opacity="0.6"/>
  <rect x="31" y="52" width="2" height="4" rx="0.5" fill="#C0C0C0"/>

  <!-- Rim details -->
  <circle cx="32" cy="32" r="30" fill="none" stroke="#000000" stroke-width="0.5" opacity="0.3"/>
  <circle cx="32" cy="32" r="28" fill="none" stroke="#FFFFFF" stroke-width="0.3" opacity="0.5"/>
  <circle cx="32" cy="32" r="26" fill="none" stroke="#000000" stroke-width="0.2" opacity="0.4"/>

  <!-- Outer glow effect -->
  <circle cx="32" cy="32" r="32" fill="none" stroke="url(#shieldRim)" stroke-width="1" opacity="0.2"/>
</svg>
