<svg width="64" height="64" viewBox="0 0 64 64" fill="none" xmlns="http://www.w3.org/2000/svg">
  <defs>
    <radialGradient id="eyeGlow" cx="50%" cy="50%" r="70%">
      <stop offset="0%" style="stop-color:#FFD700;stop-opacity:1" />
      <stop offset="40%" style="stop-color:#FFA500;stop-opacity:0.8" />
      <stop offset="80%" style="stop-color:#FF8C00;stop-opacity:0.6" />
      <stop offset="100%" style="stop-color:#FFD700;stop-opacity:0.2" />
    </radialGradient>
    <radialGradient id="magicCore" cx="50%" cy="50%" r="50%">
      <stop offset="0%" style="stop-color:#FF0000;stop-opacity:1" />
      <stop offset="50%" style="stop-color:#DC143C;stop-opacity:0.8" />
      <stop offset="100%" style="stop-color:#8B0000;stop-opacity:0.5" />
    </radialGradient>
    <linearGradient id="magicRing" x1="0%" y1="0%" x2="100%" y2="100%">
      <stop offset="0%" style="stop-color:#FFD700;stop-opacity:1" />
      <stop offset="50%" style="stop-color:#FFA500;stop-opacity:1" />
      <stop offset="100%" style="stop-color:#FF8C00;stop-opacity:1" />
    </linearGradient>
  </defs>

  <!-- Outer magic circle -->
  <circle cx="32" cy="32" r="28" fill="url(#eyeGlow)" opacity="0.3"/>
  <circle cx="32" cy="32" r="26" fill="#000000" opacity="0.8"/>
  <circle cx="32" cy="32" r="24" fill="#2F2F2F"/>
  <circle cx="32" cy="32" r="22" fill="#000000" opacity="0.6"/>

  <!-- Eye of Agamotto outer ring -->
  <circle cx="32" cy="32" r="18" fill="none" stroke="url(#magicRing)" stroke-width="2"/>
  <circle cx="32" cy="32" r="16" fill="none" stroke="#FFD700" stroke-width="1.5" opacity="0.8"/>
  <circle cx="32" cy="32" r="14" fill="none" stroke="url(#eyeGlow)" stroke-width="1.5" opacity="0.9"/>
  <circle cx="32" cy="32" r="12" fill="none" stroke="#FFFFFF" stroke-width="1" opacity="0.7"/>
  <circle cx="32" cy="32" r="10" fill="none" stroke="url(#magicRing)" stroke-width="0.8" opacity="0.8"/>
  <circle cx="32" cy="32" r="8" fill="none" stroke="#FFD700" stroke-width="0.5" opacity="0.9"/>
  <circle cx="32" cy="32" r="6" fill="none" stroke="#FFFFFF" stroke-width="0.3" opacity="0.6"/>

  <!-- Mystic symbols around the eye -->
  <path d="M50 32L46 30L48 28L44 26L46 24L42 22L44 20L40 18" stroke="url(#magicRing)" stroke-width="0.8" fill="none"/>
  <path d="M14 32L18 30L16 28L20 26L18 24L22 22L20 20L24 18" stroke="url(#magicRing)" stroke-width="0.8" fill="none"/>
  <path d="M32 14L30 18L28 16L26 20L24 18L22 22L20 20L18 24" stroke="url(#magicRing)" stroke-width="0.8" fill="none"/>
  <path d="M32 50L30 46L28 48L26 44L24 46L22 42L20 44L18 40" stroke="url(#magicRing)" stroke-width="0.8" fill="none"/>

  <!-- Inner mystical pattern -->
  <path d="M16 32L48 32L44 28L40 24L36 20L32 16L28 20L24 24L20 28Z" fill="url(#magicRing)" opacity="0.7"/>
  <path d="M16 32L48 32L44 36L40 40L36 44L32 48L28 44L24 40L20 36Z" fill="url(#magicRing)" opacity="0.7"/>
  <path d="M32 16L28 20L24 24L20 28L16 32L20 36L24 40L28 44L32 48L36 44L40 40L44 36L48 32L44 28L40 24L36 20Z" fill="none" stroke="#FFD700" stroke-width="0.5" opacity="0.8"/>

  <!-- Time Stone core -->
  <circle cx="32" cy="32" r="4" fill="url(#magicCore)"/>
  <circle cx="32" cy="32" r="2.5" fill="#000000" opacity="0.6"/>
  <circle cx="32" cy="32" r="1.5" fill="url(#magicCore)"/>
  <circle cx="32" cy="32" r="0.8" fill="#FFFFFF"/>
  <circle cx="32" cy="32" r="0.3" fill="#FF0000"/>

  <!-- Mystical energy tendrils -->
  <path d="M32 12L32 8L34 6L32 4L30 6L32 8L32 12" stroke="url(#eyeGlow)" stroke-width="1" opacity="0.6"/>
  <path d="M32 52L32 56L34 58L32 60L30 58L32 56L32 52" stroke="url(#eyeGlow)" stroke-width="1" opacity="0.6"/>
  <path d="M12 32L8 32L6 34L4 32L6 30L8 32L12 32" stroke="url(#eyeGlow)" stroke-width="1" opacity="0.6"/>
  <path d="M52 32L56 32L58 34L60 32L58 30L56 32L52 32" stroke="url(#eyeGlow)" stroke-width="1" opacity="0.6"/>

  <!-- Magical runes -->
  <path d="M28 16L30 18L32 16L34 18L36 16" stroke="#FFD700" stroke-width="0.5" fill="none" opacity="0.7"/>
  <path d="M28 48L30 46L32 48L34 46L36 48" stroke="#FFD700" stroke-width="0.5" fill="none" opacity="0.7"/>
  <path d="M16 28L18 30L16 32L18 34L16 36" stroke="#FFD700" stroke-width="0.5" fill="none" opacity="0.7"/>
  <path d="M48 28L46 30L48 32L46 34L48 36" stroke="#FFD700" stroke-width="0.5" fill="none" opacity="0.7"/>

  <!-- Energy particles -->
  <circle cx="20" cy="20" r="1" fill="url(#eyeGlow)" opacity="0.8"/>
  <circle cx="44" cy="44" r="1" fill="url(#eyeGlow)" opacity="0.8"/>
  <circle cx="20" cy="44" r="0.8" fill="url(#eyeGlow)" opacity="0.7"/>
  <circle cx="44" cy="20" r="0.8" fill="url(#eyeGlow)" opacity="0.7"/>
  <circle cx="16" cy="32" r="0.6" fill="url(#eyeGlow)" opacity="0.9"/>
  <circle cx="48" cy="32" r="0.6" fill="url(#eyeGlow)" opacity="0.9"/>
  <circle cx="32" cy="16" r="0.6" fill="url(#eyeGlow)" opacity="0.9"/>
  <circle cx="32" cy="48" r="0.6" fill="url(#eyeGlow)" opacity="0.9"/>
</svg>
