<svg width="64" height="64" viewBox="0 0 64 64" fill="none" xmlns="http://www.w3.org/2000/svg">
  <defs>
    <radialGradient id="falconGlow" cx="50%" cy="50%" r="60%">
      <stop offset="0%" style="stop-color:#FFD700;stop-opacity:1" />
      <stop offset="50%" style="stop-color:#FFA500;stop-opacity:0.8" />
      <stop offset="100%" style="stop-color:#FF8C00;stop-opacity:0.4" />
    </radialGradient>
    <linearGradient id="wingFeathers" x1="0%" y1="0%" x2="100%" y2="100%">
      <stop offset="0%" style="stop-color:#2F2F2F;stop-opacity:1" />
      <stop offset="50%" style="stop-color:#000000;stop-opacity:1" />
      <stop offset="100%" style="stop-color:#1a1a1a;stop-opacity:1" />
    </linearGradient>
  </defs>

  <!-- Falcon head -->
  <ellipse cx="32" cy="16" rx="10" ry="8" fill="url(#wingFeathers)"/>
  <ellipse cx="32" cy="18" rx="8" ry="6" fill="#000000"/>
  <ellipse cx="32" cy="20" rx="6" ry="4" fill="url(#wingFeathers)"/>

  <!-- Falcon beak -->
  <path d="M30 16L32 14L34 16L32 18L30 16Z" fill="#FFD700"/>
  <path d="M31 17L32 15L33 17L32 18L31 17Z" fill="#FFA500"/>
  <circle cx="32" cy="16" r="0.5" fill="#000000"/>

  <!-- Falcon eyes -->
  <circle cx="28" cy="14" r="1.5" fill="#FFFFFF"/>
  <circle cx="36" cy="14" r="1.5" fill="#FFFFFF"/>
  <circle cx="28" cy="14" r="0.8" fill="#000000"/>
  <circle cx="36" cy="14" r="0.8" fill="#000000"/>
  <circle cx="28" cy="14" r="0.4" fill="#FFFFFF"/>
  <circle cx="36" cy="14" r="0.4" fill="#FFFFFF"/>

  <!-- Falcon body -->
  <ellipse cx="32" cy="28" rx="12" ry="10" fill="url(#wingFeathers)"/>
  <ellipse cx="32" cy="30" rx="10" ry="8" fill="#000000"/>
  <ellipse cx="32" cy="32" rx="8" ry="6" fill="url(#wingFeathers)"/>

  <!-- Wing details -->
  <path d="M20 24C18 22 16 20 18 18C20 16 24 18 26 20C24 22 22 24 20 24Z" fill="url(#wingFeathers)"/>
  <path d="M44 24C46 22 48 20 46 18C44 16 40 18 38 20C40 22 42 24 44 24Z" fill="url(#wingFeathers)"/>
  <path d="M16 28C14 26 12 24 14 22C16 20 20 22 22 24C20 26 18 28 16 28Z" fill="#000000"/>
  <path d="M48 28C50 26 52 24 50 22C48 20 44 22 42 24C44 26 46 28 48 28Z" fill="#000000"/>
  <path d="M18 32C16 30 14 28 16 26C18 24 22 26 24 28C22 30 20 32 18 32Z" fill="url(#wingFeathers)"/>
  <path d="M46 32C48 30 50 28 48 26C46 24 42 26 40 28C42 30 44 32 46 32Z" fill="url(#wingFeathers)"/>

  <!-- Falcon tail -->
  <path d="M28 40L30 44L32 42L34 44L36 40L32 38L28 40Z" fill="url(#wingFeathers)"/>
  <path d="M30 42L32 46L34 42L32 40L30 42Z" fill="#000000"/>

  <!-- Falcon legs -->
  <path d="M26 36L24 40L26 44L28 42L30 44L28 40L26 36Z" stroke="#FFD700" stroke-width="1.5" fill="none"/>
  <path d="M38 36L40 40L38 44L36 42L34 44L36 40L38 36Z" stroke="#FFD700" stroke-width="1.5" fill="none"/>
  <circle cx="24" cy="40" r="0.8" fill="#FFD700"/>
  <circle cx="40" cy="40" r="0.8" fill="#FFD700"/>
  <circle cx="26" cy="42" r="0.6" fill="#FFD700"/>
  <circle cx="38" cy="42" r="0.6" fill="#FFD700"/>

  <!-- Wing feather details -->
  <path d="M22 22L24 20L26 22L24 24L22 22Z" stroke="#FFFFFF" stroke-width="0.5" fill="none" opacity="0.6"/>
  <path d="M38 22L40 20L42 22L40 24L38 22Z" stroke="#FFFFFF" stroke-width="0.5" fill="none" opacity="0.6"/>
  <path d="M20 26L22 24L24 26L22 28L20 26Z" stroke="#FFFFFF" stroke-width="0.5" fill="none" opacity="0.6"/>
  <path d="M44 26L42 24L40 26L42 28L44 26Z" stroke="#FFFFFF" stroke-width="0.5" fill="none" opacity="0.6"/>
</svg>
