<svg width="64" height="64" viewBox="0 0 64 64" fill="none" xmlns="http://www.w3.org/2000/svg">
  <defs>
    <radialGradient id="lanternGlow" cx="50%" cy="50%" r="70%">
      <stop offset="0%" style="stop-color:#32CD32;stop-opacity:1" />
      <stop offset="40%" style="stop-color:#228B22;stop-opacity:0.8" />
      <stop offset="80%" style="stop-color:#006400;stop-opacity:0.6" />
      <stop offset="100%" style="stop-color:#32CD32;stop-opacity:0.2" />
    </radialGradient>
    <linearGradient id="lanternRing" x1="0%" y1="0%" x2="100%" y2="100%">
      <stop offset="0%" style="stop-color:#FFD700;stop-opacity:1" />
      <stop offset="50%" style="stop-color:#FFA500;stop-opacity:1" />
      <stop offset="100%" style="stop-color:#FF8C00;stop-opacity:1" />
    </linearGradient>
    <radialGradient id="energyCore" cx="50%" cy="50%" r="50%">
      <stop offset="0%" style="stop-color:#00FF00;stop-opacity:1" />
      <stop offset="70%" style="stop-color:#32CD32;stop-opacity:0.8" />
      <stop offset="100%" style="stop-color:#228B22;stop-opacity:0.5" />
    </radialGradient>
  </defs>

  <!-- Outer lantern casing -->
  <circle cx="32" cy="32" r="28" fill="url(#lanternGlow)" opacity="0.6"/>
  <circle cx="32" cy="32" r="26" fill="#000000"/>
  <circle cx="32" cy="32" r="24" fill="#2F2F2F"/>
  <circle cx="32" cy="32" r="22" fill="#000000" opacity="0.8"/>

  <!-- Lantern body -->
  <ellipse cx="32" cy="32" rx="16" ry="20" fill="#1a1a1a"/>
  <ellipse cx="32" cy="32" rx="14" ry="18" fill="#000000"/>
  <ellipse cx="32" cy="32" rx="12" ry="16" fill="#2F2F2F"/>
  <ellipse cx="32" cy="32" rx="10" ry="14" fill="#000000" opacity="0.6"/>

  <!-- Energy rings -->
  <circle cx="32" cy="32" r="18" fill="none" stroke="url(#lanternGlow)" stroke-width="2" opacity="0.8"/>
  <circle cx="32" cy="32" r="14" fill="none" stroke="#32CD32" stroke-width="1.5" opacity="0.7"/>
  <circle cx="32" cy="32" r="10" fill="none" stroke="url(#energyCore)" stroke-width="1.5" opacity="0.9"/>
  <circle cx="32" cy="32" r="6" fill="none" stroke="#FFFFFF" stroke-width="1" opacity="0.6"/>
  <circle cx="32" cy="32" r="2" fill="none" stroke="url(#lanternRing)" stroke-width="0.8" opacity="0.8"/>

  <!-- Power ring emblem -->
  <path d="M20 20L44 20L44 24L40 24L40 28L36 28L36 32L28 32L28 28L24 28L24 24L20 24L20 20Z" fill="url(#lanternRing)"/>
  <path d="M22 22L42 22L42 24L40 24L40 26L38 26L38 28L36 28L36 30L28 30L28 28L26 28L26 26L24 26L24 24L22 24L22 22Z" fill="#000000" opacity="0.4"/>
  <path d="M24 24L40 24L40 28L36 28L36 32L28 32L28 28L24 28L24 24Z" fill="url(#lanternGlow)" opacity="0.7"/>

  <!-- Lantern handle/base -->
  <rect x="28" y="16" width="8" height="4" rx="1" fill="url(#lanternRing)"/>
  <rect x="29" y="17" width="6" height="2" rx="0.5" fill="#000000" opacity="0.3"/>
  <rect x="30" y="18" width="4" height="1" rx="0.5" fill="url(#lanternRing)"/>

  <!-- Energy particles -->
  <circle cx="16" cy="32" r="1.5" fill="url(#lanternGlow)" opacity="0.7"/>
  <circle cx="48" cy="32" r="1.2" fill="url(#lanternGlow)" opacity="0.6"/>
  <circle cx="32" cy="16" r="1" fill="url(#lanternGlow)" opacity="0.8"/>
  <circle cx="32" cy="48" r="1.3" fill="url(#lanternGlow)" opacity="0.5"/>
  <circle cx="20" cy="20" r="0.8" fill="url(#lanternGlow)" opacity="0.6"/>
  <circle cx="44" cy="44" r="0.9" fill="url(#lanternGlow)" opacity="0.7"/>

  <!-- Circuit patterns -->
  <path d="M24 18L26 16L28 18L30 16L32 18L34 16L36 18L38 16L40 18" stroke="#32CD32" stroke-width="0.5" fill="none" opacity="0.6"/>
  <path d="M24 46L26 48L28 46L30 48L32 46L34 48L36 46L38 48L40 46" stroke="#32CD32" stroke-width="0.5" fill="none" opacity="0.6"/>
  <path d="M18 24L16 26L18 28L16 30L18 32L16 34L18 36L16 38L18 40" stroke="#32CD32" stroke-width="0.5" fill="none" opacity="0.6"/>
  <path d="M46 24L48 26L46 28L48 30L46 32L48 34L46 36L48 38L46 40" stroke="#32CD32" stroke-width="0.5" fill="none" opacity="0.6"/>
</svg>
