<svg width="64" height="64" viewBox="0 0 64 64" fill="none" xmlns="http://www.w3.org/2000/svg">
  <defs>
    <radialGradient id="hulkSkin" cx="50%" cy="40%" r="70%">
      <stop offset="0%" style="stop-color:#32CD32;stop-opacity:1" />
      <stop offset="40%" style="stop-color:#228B22;stop-opacity:1" />
      <stop offset="80%" style="stop-color:#006400;stop-opacity:1" />
      <stop offset="100%" style="stop-color:#004400;stop-opacity:1" />
    </radialGradient>
    <linearGradient id="hulkMuscle" x1="0%" y1="0%" x2="100%" y2="100%">
      <stop offset="0%" style="stop-color:#32CD32;stop-opacity:1" />
      <stop offset="50%" style="stop-color:#228B22;stop-opacity:1" />
      <stop offset="100%" style="stop-color:#006400;stop-opacity:1" />
    </linearGradient>
    <radialGradient id="eyeGlow" cx="50%" cy="50%" r="50%">
      <stop offset="0%" style="stop-color:#FF0000;stop-opacity:1" />
      <stop offset="70%" style="stop-color:#8B0000;stop-opacity:0.8" />
      <stop offset="100%" style="stop-color:#FF0000;stop-opacity:0.4" />
    </radialGradient>
  </defs>

  <!-- Hulk's massive head -->
  <ellipse cx="32" cy="20" rx="18" ry="16" fill="url(#hulkSkin)"/>
  <ellipse cx="32" cy="22" rx="16" ry="14" fill="#228B22" opacity="0.8"/>
  <ellipse cx="32" cy="24" rx="14" ry="12" fill="url(#hulkSkin)"/>

  <!-- Forehead ridges and brow -->
  <path d="M16 16C18 14 22 12 26 14C28 15 30 13 32 12C34 13 36 15 38 14C42 12 46 14 48 16" fill="none" stroke="#006400" stroke-width="2"/>
  <path d="M20 18C22 16 26 15 30 16C32 17 34 16 36 16C40 15 44 16 46 18" fill="none" stroke="#004400" stroke-width="1.5"/>

  <!-- Angry eyes -->
  <ellipse cx="26" cy="20" rx="3" ry="4" fill="url(#eyeGlow)"/>
  <ellipse cx="38" cy="20" rx="3" ry="4" fill="url(#eyeGlow)"/>
  <ellipse cx="26" cy="20" rx="2" ry="3" fill="#000000"/>
  <ellipse cx="38" cy="20" rx="2" ry="3" fill="#000000"/>
  <ellipse cx="26" cy="20" rx="1" ry="2" fill="#FFFFFF"/>
  <ellipse cx="38" cy="20" rx="1" ry="2" fill="#FFFFFF"/>
  <circle cx="26" cy="19" r="0.5" fill="#FF0000" opacity="0.8"/>
  <circle cx="38" cy="19" r="0.5" fill="#FF0000" opacity="0.8"/>

  <!-- Mouth/teeth -->
  <path d="M28 28C30 30 32 32 34 30C36 28 34 26 32 28C30 26 28 28 28 28Z" fill="#000000"/>
  <path d="M30 30L32 32L34 30" fill="#FFFFFF"/>
  <circle cx="29" cy="29" r="0.5" fill="#FFFFFF"/>
  <circle cx="35" cy="29" r="0.5" fill="#FFFFFF"/>
  <circle cx="31" cy="31" r="0.3" fill="#FFFFFF"/>
  <circle cx="33" cy="31" r="0.3" fill="#FFFFFF"/>

  <!-- Massive neck muscles -->
  <ellipse cx="32" cy="38" rx="12" ry="8" fill="url(#hulkMuscle)"/>
  <ellipse cx="32" cy="40" rx="10" ry="6" fill="#228B22"/>
  <ellipse cx="32" cy="42" rx="8" ry="4" fill="url(#hulkMuscle)"/>

  <!-- Neck veins -->
  <path d="M26 34C28 36 30 38 32 36C34 38 36 36 38 34" fill="none" stroke="#004400" stroke-width="1.5"/>
  <path d="M24 36C26 38 28 40 30 38C32 40 34 38 36 36" fill="none" stroke="#004400" stroke-width="1"/>
  <path d="M28 38C30 40 32 42 34 40" fill="none" stroke="#004400" stroke-width="0.8"/>

  <!-- Massive shoulders and arms -->
  <ellipse cx="18" cy="36" rx="8" ry="12" fill="url(#hulkMuscle)"/>
  <ellipse cx="46" cy="36" rx="8" ry="12" fill="url(#hulkMuscle)"/>
  <ellipse cx="18" cy="38" rx="6" ry="10" fill="#228B22"/>
  <ellipse cx="46" cy="38" rx="6" ry="10" fill="#228B22"/>
  <ellipse cx="18" cy="40" rx="4" ry="8" fill="url(#hulkMuscle)"/>
  <ellipse cx="46" cy="40" rx="4" ry="8" fill="url(#hulkMuscle)"/>

  <!-- Arm veins -->
  <path d="M14 32C16 34 18 36 20 34" fill="none" stroke="#004400" stroke-width="1.5"/>
  <path d="M44 32C46 34 48 36 50 34" fill="none" stroke="#004400" stroke-width="1.5"/>
  <path d="M16 38C18 40 20 42 22 40" fill="none" stroke="#004400" stroke-width="1"/>
  <path d="M42 38C44 40 46 42 48 40" fill="none" stroke="#004400" stroke-width="1"/>

  <!-- Chest muscles -->
  <ellipse cx="32" cy="44" rx="14" ry="10" fill="url(#hulkMuscle)"/>
  <ellipse cx="32" cy="46" rx="12" ry="8" fill="#228B22"/>
  <ellipse cx="32" cy="48" rx="10" ry="6" fill="url(#hulkMuscle)"/>

  <!-- Chest definition lines -->
  <path d="M22 42C24 44 26 46 28 44C30 46 32 48 34 46C36 48 38 46 40 44" fill="none" stroke="#004400" stroke-width="1.5"/>
  <path d="M24 46C26 48 28 50 30 48C32 50 34 48 36 46" fill="none" stroke="#004400" stroke-width="1"/>

  <!-- Angry expression lines -->
  <path d="M24 24C26 26 28 24 30 26" fill="none" stroke="#004400" stroke-width="1"/>
  <path d="M34 26C36 24 38 26 40 24" fill="none" stroke="#004400" stroke-width="1"/>
  <path d="M28 32C30 34 32 36 34 34" fill="none" stroke="#004400" stroke-width="0.8"/>

  <!-- Hulk veins throughout -->
  <path d="M20 28C22 30 24 28 26 30" fill="none" stroke="#004400" stroke-width="0.8"/>
  <path d="M38 30C40 28 42 30 44 28" fill="none" stroke="#004400" stroke-width="0.8"/>
  <path d="M22 42C24 44 26 42 28 44" fill="none" stroke="#004400" stroke-width="0.8"/>
  <path d="M36 44C38 42 40 44 42 42" fill="none" stroke="#004400" stroke-width="0.8"/>
</svg>
