<svg width="64" height="64" viewBox="0 0 64 64" fill="none" xmlns="http://www.w3.org/2000/svg">
  <defs>
    <radialGradient id="reactorCore" cx="50%" cy="50%" r="50%">
      <stop offset="0%" style="stop-color:#00FFFF;stop-opacity:1" />
      <stop offset="30%" style="stop-color:#00BFFF;stop-opacity:0.9" />
      <stop offset="70%" style="stop-color:#1E90FF;stop-opacity:0.7" />
      <stop offset="100%" style="stop-color:#0000FF;stop-opacity:0.5" />
    </radialGradient>
    <radialGradient id="energyGlow" cx="50%" cy="50%" r="60%">
      <stop offset="0%" style="stop-color:#FFD700;stop-opacity:0.8" />
      <stop offset="40%" style="stop-color:#FFA500;stop-opacity:0.6" />
      <stop offset="80%" style="stop-color:#FF4500;stop-opacity:0.3" />
      <stop offset="100%" style="stop-color:#FFD700;stop-opacity:0.1" />
    </radialGradient>
    <linearGradient id="circuitGradient" x1="0%" y1="0%" x2="100%" y2="100%">
      <stop offset="0%" style="stop-color:#C0C0C0;stop-opacity:1" />
      <stop offset="50%" style="stop-color:#A0A0A0;stop-opacity:1" />
      <stop offset="100%" style="stop-color:#808080;stop-opacity:1" />
    </linearGradient>
  </defs>

  <!-- Outer armor plating -->
  <circle cx="32" cy="32" r="30" fill="url(#circuitGradient)"/>
  <circle cx="32" cy="32" r="28" fill="#000000" opacity="0.8"/>
  <circle cx="32" cy="32" r="26" fill="#2F2F2F"/>

  <!-- Armor circuit patterns -->
  <path d="M8 32L12 28L16 32L12 36L8 32Z" fill="#FFD700" opacity="0.8"/>
  <path d="M56 32L52 28L48 32L52 36L56 32Z" fill="#FFD700" opacity="0.8"/>
  <path d="M32 8L36 12L32 16L28 12L32 8Z" fill="#FFD700" opacity="0.8"/>
  <path d="M32 56L36 52L32 48L28 52L32 56Z" fill="#FFD700" opacity="0.8"/>
  <path d="M18 18L22 14L26 18L22 22L18 18Z" fill="#00FFFF" opacity="0.6"/>
  <path d="M46 18L42 14L38 18L42 22L46 18Z" fill="#00FFFF" opacity="0.6"/>
  <path d="M18 46L22 50L26 46L22 42L18 46Z" fill="#00FFFF" opacity="0.6"/>
  <path d="M46 46L42 50L38 46L42 42L46 46Z" fill="#00FFFF" opacity="0.6"/>

  <!-- Energy rings -->
  <circle cx="32" cy="32" r="22" fill="none" stroke="url(#energyGlow)" stroke-width="2" opacity="0.7"/>
  <circle cx="32" cy="32" r="18" fill="none" stroke="#FFD700" stroke-width="1.5" opacity="0.8"/>
  <circle cx="32" cy="32" r="14" fill="none" stroke="url(#reactorCore)" stroke-width="1.5" opacity="0.9"/>
  <circle cx="32" cy="32" r="10" fill="none" stroke="#FFFFFF" stroke-width="1" opacity="0.6"/>
  <circle cx="32" cy="32" r="6" fill="none" stroke="#FFD700" stroke-width="0.8" opacity="0.8"/>

  <!-- Inner reactor core -->
  <circle cx="32" cy="32" r="4" fill="url(#reactorCore)"/>
  <circle cx="32" cy="32" r="2" fill="#FFFFFF"/>
  <circle cx="32" cy="32" r="1" fill="#FFD700"/>

  <!-- Energy tendrils -->
  <path d="M32 14L32 10L34 8L32 6L30 8L32 10L32 14" fill="none" stroke="url(#energyGlow)" stroke-width="1" opacity="0.6"/>
  <path d="M32 50L32 54L34 56L32 58L30 56L32 54L32 50" fill="none" stroke="url(#energyGlow)" stroke-width="1" opacity="0.6"/>
  <path d="M14 32L10 32L8 34L6 32L8 30L10 32L14 32" fill="none" stroke="url(#energyGlow)" stroke-width="1" opacity="0.6"/>
  <path d="M50 32L54 32L56 34L58 32L56 30L54 32L50 32" fill="none" stroke="url(#energyGlow)" stroke-width="1" opacity="0.6"/>

  <!-- Circuit lines -->
  <line x1="20" y1="20" x2="24" y2="16" stroke="#FFD700" stroke-width="0.5" opacity="0.7"/>
  <line x1="44" y1="20" x2="40" y2="16" stroke="#FFD700" stroke-width="0.5" opacity="0.7"/>
  <line x1="20" y1="44" x2="24" y2="48" stroke="#FFD700" stroke-width="0.5" opacity="0.7"/>
  <line x1="44" y1="44" x2="40" y2="48" stroke="#FFD700" stroke-width="0.5" opacity="0.7"/>
  <line x1="16" y1="26" x2="12" y2="30" stroke="#00FFFF" stroke-width="0.5" opacity="0.6"/>
  <line x1="48" y1="26" x2="52" y2="30" stroke="#00FFFF" stroke-width="0.5" opacity="0.6"/>
  <line x1="16" y1="38" x2="12" y2="34" stroke="#00FFFF" stroke-width="0.5" opacity="0.6"/>
  <line x1="48" y1="38" x2="52" y2="34" stroke="#00FFFF" stroke-width="0.5" opacity="0.6"/>

  <!-- Outer glow effect -->
  <circle cx="32" cy="32" r="32" fill="none" stroke="url(#energyGlow)" stroke-width="2" opacity="0.3"/>
</svg>
