<svg width="64" height="64" viewBox="0 0 64 64" fill="none" xmlns="http://www.w3.org/2000/svg">
  <defs>
    <radialGradient id="witchGlow" cx="50%" cy="50%" r="70%">
      <stop offset="0%" style="stop-color:#DC143C;stop-opacity:1" />
      <stop offset="50%" style="stop-color:#B22222;stop-opacity:0.8" />
      <stop offset="100%" style="stop-color:#8B0000;stop-opacity:0.4" />
    </radialGradient>
    <radialGradient id="magicCore" cx="50%" cy="50%" r="50%">
      <stop offset="0%" style="stop-color:#FF0000;stop-opacity:1" />
      <stop offset="70%" style="stop-color:#DC143C;stop-opacity:0.8" />
      <stop offset="100%" style="stop-color:#8B0000;stop-opacity:0.5" />
    </radialGradient>
  </defs>

  <!-- Outer chaos magic circle -->
  <circle cx="32" cy="32" r="30" fill="url(#witchGlow)" opacity="0.3"/>
  <circle cx="32" cy="32" r="28" fill="#000000" opacity="0.8"/>
  <circle cx="32" cy="32" r="26" fill="#2F2F2F"/>
  <circle cx="32" cy="32" r="24" fill="#000000" opacity="0.6"/>

  <!-- Chaos magic rings -->
  <circle cx="32" cy="32" r="20" fill="none" stroke="url(#witchGlow)" stroke-width="2" opacity="0.8"/>
  <circle cx="32" cy="32" r="16" fill="none" stroke="#DC143C" stroke-width="1.5" opacity="0.7"/>
  <circle cx="32" cy="32" r="12" fill="none" stroke="url(#magicCore)" stroke-width="1.5" opacity="0.9"/>
  <circle cx="32" cy="32" r="8" fill="none" stroke="#FFFFFF" stroke-width="1" opacity="0.6"/>
  <circle cx="32" cy="32" r="4" fill="none" stroke="url(#witchGlow)" stroke-width="0.8" opacity="0.8"/>

  <!-- Chaos magic symbols -->
  <path d="M16 32L20 28L24 32L20 36L16 32Z" fill="url(#witchGlow)" opacity="0.8"/>
  <path d="M40 32L44 28L48 32L44 36L40 32Z" fill="url(#witchGlow)" opacity="0.8"/>
  <path d="M32 16L28 20L32 24L36 20L32 16Z" fill="url(#witchGlow)" opacity="0.8"/>
  <path d="M32 48L28 44L32 40L36 44L32 48Z" fill="url(#witchGlow)" opacity="0.8"/>
  <path d="M22 22L26 18L30 22L26 26L22 22Z" fill="url(#magicCore)" opacity="0.9"/>
  <path d="M42 22L46 18L42 26L38 22L42 22Z" fill="url(#magicCore)" opacity="0.9"/>
  <path d="M22 42L26 46L30 42L26 38L22 42Z" fill="url(#magicCore)" opacity="0.9"/>
  <path d="M42 42L46 46L42 38L38 42L42 42Z" fill="url(#magicCore)" opacity="0.9"/>

  <!-- Inner chaos pattern -->
  <path d="M24 24L28 20L32 24L36 20L40 24L36 28L32 32L28 28L24 24Z" fill="none" stroke="url(#witchGlow)" stroke-width="1" opacity="0.7"/>
  <circle cx="32" cy="32" r="2" fill="url(#magicCore)"/>
  <circle cx="32" cy="32" r="1" fill="#FFFFFF" opacity="0.8"/>
  <circle cx="32" cy="32" r="0.5" fill="#FF0000"/>

  <!-- Chaos energy tendrils -->
  <path d="M32 8L32 4L34 2L32 0L30 2L32 4L32 8" stroke="url(#witchGlow)" stroke-width="1" opacity="0.6"/>
  <path d="M32 56L32 60L34 62L32 64L30 62L32 60L32 56" stroke="url(#witchGlow)" stroke-width="1" opacity="0.6"/>
  <path d="M8 32L4 32L2 34L0 32L2 30L4 32L8 32" stroke="url(#witchGlow)" stroke-width="1" opacity="0.6"/>
  <path d="M56 32L60 32L62 34L64 32L62 30L60 32L56 32" stroke="url(#witchGlow)" stroke-width="1" opacity="0.6"/>

  <!-- Magical runes -->
  <path d="M20 20L22 18L24 20L22 22L20 20Z" stroke="#DC143C" stroke-width="0.5" fill="none" opacity="0.8"/>
  <path d="M40 20L42 18L44 20L42 22L40 20Z" stroke="#DC143C" stroke-width="0.5" fill="none" opacity="0.8"/>
  <path d="M20 44L22 46L24 44L22 42L20 44Z" stroke="#DC143C" stroke-width="0.5" fill="none" opacity="0.8"/>
  <path d="M40 44L42 46L44 44L42 42L40 44Z" stroke="#DC143C" stroke-width="0.5" fill="none" opacity="0.8"/>
</svg>
