<svg width="64" height="64" viewBox="0 0 64 64" fill="none" xmlns="http://www.w3.org/2000/svg">
  <defs>
    <radialGradient id="spiderGradient" cx="30%" cy="30%" r="70%">
      <stop offset="0%" style="stop-color:#FF6B6B;stop-opacity:1" />
      <stop offset="50%" style="stop-color:#DC143C;stop-opacity:1" />
      <stop offset="100%" style="stop-color:#8B0000;stop-opacity:1" />
    </radialGradient>
    <radialGradient id="webGradient" cx="50%" cy="50%" r="50%">
      <stop offset="0%" style="stop-color:#FFFFFF;stop-opacity:0.9" />
      <stop offset="50%" style="stop-color:#F8F8F8;stop-opacity:0.7" />
      <stop offset="100%" style="stop-color:#E0E0E0;stop-opacity:0.5" />
    </radialGradient>
    <linearGradient id="spiderBody" x1="0%" y1="0%" x2="100%" y2="100%">
      <stop offset="0%" style="stop-color:#DC143C;stop-opacity:1" />
      <stop offset="100%" style="stop-color:#B22222;stop-opacity:1" />
    </linearGradient>
  </defs>

  <!-- Outer web circles with gradient -->
  <circle cx="32" cy="32" r="30" fill="url(#spiderGradient)" opacity="0.8"/>
  <circle cx="32" cy="32" r="26" fill="none" stroke="url(#webGradient)" stroke-width="1.5" opacity="0.6"/>

  <!-- Main spider body -->
  <ellipse cx="32" cy="32" rx="18" ry="22" fill="url(#spiderBody)"/>
  <ellipse cx="32" cy="28" rx="14" ry="16" fill="#000000"/>
  <ellipse cx="32" cy="26" rx="10" ry="12" fill="url(#spiderBody)"/>

  <!-- Intricate spider web pattern -->
  <circle cx="32" cy="32" r="8" fill="none" stroke="#FFFFFF" stroke-width="0.5" opacity="0.8"/>
  <circle cx="32" cy="32" r="12" fill="none" stroke="#FFFFFF" stroke-width="0.3" opacity="0.6"/>
  <circle cx="32" cy="32" r="16" fill="none" stroke="#FFFFFF" stroke-width="0.3" opacity="0.4"/>
  <circle cx="32" cy="32" r="20" fill="none" stroke="#FFFFFF" stroke-width="0.2" opacity="0.3"/>

  <!-- Web radial lines -->
  <line x1="32" y1="12" x2="32" y2="52" stroke="#FFFFFF" stroke-width="0.3" opacity="0.5"/>
  <line x1="16" y1="16" x2="48" y2="48" stroke="#FFFFFF" stroke-width="0.3" opacity="0.5"/>
  <line x1="12" y1="32" x2="52" y2="32" stroke="#FFFFFF" stroke-width="0.3" opacity="0.5"/>
  <line x1="16" y1="48" x2="48" y2="16" stroke="#FFFFFF" stroke-width="0.3" opacity="0.5"/>
  <line x1="22" y1="14" x2="42" y2="50" stroke="#FFFFFF" stroke-width="0.2" opacity="0.4"/>
  <line x1="42" y1="14" x2="22" y2="50" stroke="#FFFFFF" stroke-width="0.2" opacity="0.4"/>
  <line x1="14" y1="22" x2="50" y2="42" stroke="#FFFFFF" stroke-width="0.2" opacity="0.4"/>
  <line x1="14" y1="42" x2="50" y2="22" stroke="#FFFFFF" stroke-width="0.2" opacity="0.4"/>

  <!-- Spider legs with curves -->
  <path d="M20 24Q16 20 12 24Q10 28 14 32" fill="none" stroke="#000000" stroke-width="2" stroke-linecap="round"/>
  <path d="M44 24Q48 20 52 24Q54 28 50 32" fill="none" stroke="#000000" stroke-width="2" stroke-linecap="round"/>
  <path d="M18 28Q14 24 10 28Q8 32 12 36" fill="none" stroke="#000000" stroke-width="1.5" stroke-linecap="round"/>
  <path d="M46 28Q50 24 54 28Q56 32 52 36" fill="none" stroke="#000000" stroke-width="1.5" stroke-linecap="round"/>
  <path d="M22 36Q18 32 14 36Q12 40 16 44" fill="none" stroke="#000000" stroke-width="1.5" stroke-linecap="round"/>
  <path d="M42 36Q46 32 50 36Q52 40 48 44" fill="none" stroke="#000000" stroke-width="1.5" stroke-linecap="round"/>
  <path d="M26 40Q22 36 18 40Q16 44 20 48" fill="none" stroke="#000000" stroke-width="1" stroke-linecap="round"/>
  <path d="M38 40Q42 36 46 40Q48 44 44 48" fill="none" stroke="#000000" stroke-width="1" stroke-linecap="round"/>

  <!-- Spider eyes with glow -->
  <circle cx="28" cy="22" r="2.5" fill="#FF0000"/>
  <circle cx="36" cy="22" r="2.5" fill="#FF0000"/>
  <circle cx="28" cy="22" r="1" fill="#FFFFFF"/>
  <circle cx="36" cy="22" r="1" fill="#FFFFFF"/>
  <circle cx="28" cy="22" r="0.5" fill="#000000"/>
  <circle cx="36" cy="22" r="0.5" fill="#000000"/>

  <!-- Fangs -->
  <path d="M30 30L32 34L34 30" fill="none" stroke="#FFFFFF" stroke-width="0.8"/>
  <circle cx="31" cy="32" r="0.3" fill="#FFFFFF"/>
  <circle cx="33" cy="32" r="0.3" fill="#FFFFFF"/>
</svg>
