<svg width="64" height="64" viewBox="0 0 64 64" fill="none" xmlns="http://www.w3.org/2000/svg">
  <defs>
    <radialGradient id="shieldGlow" cx="50%" cy="40%" r="80%">
      <stop offset="0%" style="stop-color:#FFD700;stop-opacity:1" />
      <stop offset="30%" style="stop-color:#FFA500;stop-opacity:0.9" />
      <stop offset="60%" style="stop-color:#FF8C00;stop-opacity:0.7" />
      <stop offset="100%" style="stop-color:#FFD700;stop-opacity:0.3" />
    </radialGradient>
    <linearGradient id="shieldGradient" x1="0%" y1="0%" x2="100%" y2="100%">
      <stop offset="0%" style="stop-color:#B22222;stop-opacity:1" />
      <stop offset="50%" style="stop-color:#DC143C;stop-opacity:1" />
      <stop offset="100%" style="stop-color:#8B0000;stop-opacity:1" />
    </linearGradient>
    <linearGradient id="letterGradient" x1="0%" y1="0%" x2="100%" y2="100%">
      <stop offset="0%" style="stop-color:#FFD700;stop-opacity:1" />
      <stop offset="50%" style="stop-color:#FFA500;stop-opacity:1" />
      <stop offset="100%" style="stop-color:#FF8C00;stop-opacity:1" />
    </linearGradient>
  </defs>

  <!-- Shield base with 3D effect -->
  <ellipse cx="32" cy="32" rx="18" ry="24" fill="url(#shieldGradient)"/>
  <ellipse cx="32" cy="30" rx="16" ry="22" fill="#000000" opacity="0.3"/>
  <ellipse cx="32" cy="34" rx="16" ry="22" fill="#FFFFFF" opacity="0.1"/>

  <!-- Shield border with metallic effect -->
  <ellipse cx="32" cy="32" rx="18" ry="24" fill="none" stroke="url(#letterGradient)" stroke-width="2"/>
  <ellipse cx="32" cy="32" rx="16" ry="22" fill="none" stroke="#FFFFFF" stroke-width="0.5" opacity="0.8"/>

  <!-- Classic Superman 'S' letter with gradients -->
  <path d="M28 18C26 18 24 20 24 22C24 24 26 26 28 26C30 26 32 28 32 30C32 28 34 26 36 26C38 26 40 24 40 22C40 20 38 18 36 18C34 18 32 16 32 14C32 16 30 18 28 18Z" fill="url(#letterGradient)"/>
  <path d="M24 22C24 20 26 18 28 18C30 18 32 16 32 14C32 16 34 18 36 18C38 18 40 20 40 22C40 24 38 26 36 26C34 26 32 28 32 30C32 28 30 26 28 26C26 26 24 24 24 22Z" fill="#000000" opacity="0.4"/>

  <!-- Letter details and shading -->
  <path d="M26 20C27 19 29 19 30 20C31 21 31 23 30 24C29 25 27 25 26 24C25 23 25 21 26 20Z" fill="#FFFFFF" opacity="0.6"/>
  <path d="M34 20C35 19 37 19 38 20C39 21 39 23 38 24C37 25 35 25 34 24C33 23 33 21 34 20Z" fill="#FFFFFF" opacity="0.6"/>

  <!-- Inner shield pentagon -->
  <path d="M32 16L38 20L38 26L32 30L26 26L26 20Z" fill="none" stroke="url(#letterGradient)" stroke-width="1" opacity="0.7"/>
  <path d="M32 18L36 21L36 25L32 28L28 25L28 21Z" fill="url(#shieldGlow)" opacity="0.5"/>

  <!-- Shield emblem details -->
  <circle cx="32" cy="23" r="1" fill="url(#letterGradient)"/>
  <circle cx="32" cy="23" r="0.5" fill="#FFFFFF" opacity="0.8"/>

  <!-- Bottom curve details -->
  <path d="M26 38C28 36 30 34 32 34C34 34 36 36 38 38" fill="none" stroke="#FFFFFF" stroke-width="0.5" opacity="0.4"/>
  <path d="M28 40C30 38 32 36 34 38C36 40 38 42 40 40" fill="none" stroke="#000000" stroke-width="0.3" opacity="0.3"/>

  <!-- Outer glow effect -->
  <ellipse cx="32" cy="32" rx="20" ry="26" fill="none" stroke="url(#shieldGlow)" stroke-width="1" opacity="0.3"/>
</svg>
