<svg width="64" height="64" viewBox="0 0 64 64" fill="none" xmlns="http://www.w3.org/2000/svg">
  <defs>
    <radialGradient id="waspGlow" cx="50%" cy="50%" r="60%">
      <stop offset="0%" style="stop-color:#FFD700;stop-opacity:1" />
      <stop offset="50%" style="stop-color:#FFA500;stop-opacity:0.8" />
      <stop offset="100%" style="stop-color:#FF8C00;stop-opacity:0.4" />
    </radialGradient>
    <linearGradient id="waspBody" x1="0%" y1="0%" x2="100%" y2="100%">
      <stop offset="0%" style="stop-color:#FFD700;stop-opacity:1" />
      <stop offset="50%" style="stop-color:#FFA500;stop-opacity:1" />
      <stop offset="100%" style="stop-color:#FF8C00;stop-opacity:1" />
    </linearGradient>
    <linearGradient id="waspStripe" x1="0%" y1="0%" x2="100%" y2="100%">
      <stop offset="0%" style="stop-color:#000000;stop-opacity:1" />
      <stop offset="50%" style="stop-color:#2F2F2F;stop-opacity:1" />
      <stop offset="100%" style="stop-color:#000000;stop-opacity:1" />
    </linearGradient>
  </defs>

  <!-- Wasp head -->
  <ellipse cx="32" cy="18" rx="8" ry="6" fill="url(#waspBody)"/>
  <ellipse cx="32" cy="20" rx="6" ry="4" fill="#000000"/>
  <ellipse cx="32" cy="22" rx="4" ry="3" fill="url(#waspBody)"/>

  <!-- Wasp eyes -->
  <circle cx="28" cy="16" r="1.5" fill="#FFFFFF"/>
  <circle cx="36" cy="16" r="1.5" fill="#FFFFFF"/>
  <circle cx="28" cy="16" r="0.8" fill="#000000"/>
  <circle cx="36" cy="16" r="0.8" fill="#000000"/>
  <circle cx="28" cy="16" r="0.4" fill="#FFFFFF"/>
  <circle cx="36" cy="16" r="0.4" fill="#FFFFFF"/>

  <!-- Wasp antennae -->
  <path d="M26 14L24 10L26 8L28 10L26 12" stroke="#FFD700" stroke-width="1" fill="none"/>
  <path d="M38 14L40 10L38 8L36 10L38 12" stroke="#FFD700" stroke-width="1" fill="none"/>
  <circle cx="26" cy="8" r="0.5" fill="#FFD700"/>
  <circle cx="38" cy="8" r="0.5" fill="#FFD700"/>

  <!-- Wasp thorax with stripes -->
  <ellipse cx="32" cy="28" rx="10" ry="8" fill="url(#waspBody)"/>
  <ellipse cx="32" cy="26" rx="8" ry="6" fill="url(#waspStripe)"/>
  <ellipse cx="32" cy="30" rx="8" ry="6" fill="url(#waspStripe)"/>
  <ellipse cx="32" cy="32" rx="6" ry="4" fill="url(#waspBody)"/>

  <!-- Wasp abdomen with stripes -->
  <ellipse cx="32" cy="40" rx="12" ry="10" fill="url(#waspBody)"/>
  <ellipse cx="32" cy="38" rx="10" ry="8" fill="url(#waspStripe)"/>
  <ellipse cx="32" cy="42" rx="10" ry="8" fill="url(#waspStripe)"/>
  <ellipse cx="32" cy="44" rx="8" ry="6" fill="url(#waspBody)"/>

  <!-- Wasp wings -->
  <path d="M20 24C18 22 16 20 18 18C20 16 24 18 26 20C24 22 22 24 20 24Z" fill="#E0E0E0" opacity="0.7"/>
  <path d="M44 24C46 22 48 20 46 18C44 16 40 18 38 20C40 22 42 24 44 24Z" fill="#E0E0E0" opacity="0.7"/>
  <path d="M16 28C14 26 12 24 14 22C16 20 20 22 22 24C20 26 18 28 16 28Z" fill="#F0F0F0" opacity="0.5"/>
  <path d="M48 28C50 26 52 24 50 22C48 20 44 22 42 24C44 26 46 28 48 28Z" fill="#F0F0F0" opacity="0.5"/>

  <!-- Wasp legs -->
  <path d="M22 30L18 28L14 30L16 34L20 32L24 34" stroke="#FFD700" stroke-width="1.5" fill="none"/>
  <path d="M42 30L46 28L50 30L48 34L44 32L40 34" stroke="#FFD700" stroke-width="1.5" fill="none"/>
  <path d="M24 38L20 36L16 38L18 42L22 40L26 42" stroke="#FFD700" stroke-width="1.5" fill="none"/>
  <path d="M40 38L44 36L48 38L46 42L42 40L38 42" stroke="#FFD700" stroke-width="1.5" fill="none"/>

  <!-- Wasp leg joints -->
  <circle cx="18" cy="28" r="0.6" fill="#FFD700"/>
  <circle cx="46" cy="28" r="0.6" fill="#FFD700"/>
  <circle cx="20" cy="36" r="0.6" fill="#FFD700"/>
  <circle cx="44" cy="36" r="0.6" fill="#FFD700"/>

  <!-- Wasp stinger -->
  <path d="M30 46L32 50L34 46" fill="#FFD700"/>
  <circle cx="32" cy="48" r="0.3" fill="#000000"/>
</svg>
