<svg width="64" height="64" viewBox="0 0 64 64" fill="none" xmlns="http://www.w3.org/2000/svg">
  <defs>
    <radialGradient id="lightningGlow" cx="50%" cy="30%" r="80%">
      <stop offset="0%" style="stop-color:#FFD700;stop-opacity:1" />
      <stop offset="30%" style="stop-color:#FFA500;stop-opacity:0.9" />
      <stop offset="70%" style="stop-color:#FF8C00;stop-opacity:0.6" />
      <stop offset="100%" style="stop-color:#FFD700;stop-opacity:0.2" />
    </radialGradient>
    <linearGradient id="hammerMetal" x1="0%" y1="0%" x2="100%" y2="100%">
      <stop offset="0%" style="stop-color:#C0C0C0;stop-opacity:1" />
      <stop offset="30%" style="stop-color:#A0A0A0;stop-opacity:1" />
      <stop offset="70%" style="stop-color:#808080;stop-opacity:1" />
      <stop offset="100%" style="stop-color:#606060;stop-opacity:1" />
    </linearGradient>
    <linearGradient id="handleWood" x1="0%" y1="0%" x2="100%" y2="100%">
      <stop offset="0%" style="stop-color:#8B4513;stop-opacity:1" />
      <stop offset="50%" style="stop-color:#654321;stop-opacity:1" />
      <stop offset="100%" style="stop-color:#4A2C17;stop-opacity:1" />
    </linearGradient>
  </defs>

  <!-- Hammer handle with wood texture -->
  <rect x="29" y="16" width="6" height="36" rx="1" fill="url(#handleWood)"/>
  <rect x="30" y="18" width="4" height="34" rx="0.5" fill="#654321" opacity="0.8"/>
  <rect x="31" y="20" width="2" height="32" rx="0.5" fill="url(#handleWood)"/>

  <!-- Handle leather wrapping -->
  <rect x="28" y="20" width="8" height="4" fill="#654321"/>
  <rect x="28" y="28" width="8" height="4" fill="#654321"/>
  <rect x="28" y="36" width="8" height="4" fill="#654321"/>
  <rect x="28" y="44" width="8" height="4" fill="#654321"/>
  <rect x="29" y="22" width="6" height="2" fill="#8B4513"/>
  <rect x="29" y="30" width="6" height="2" fill="#8B4513"/>
  <rect x="29" y="38" width="6" height="2" fill="#8B4513"/>
  <rect x="29" y="46" width="6" height="2" fill="#8B4513"/>

  <!-- Hammer head - main body -->
  <rect x="24" y="10" width="16" height="12" rx="2" fill="url(#hammerMetal)"/>
  <rect x="26" y="12" width="12" height="8" rx="1" fill="#A0A0A0"/>
  <rect x="28" y="14" width="8" height="4" rx="1" fill="url(#hammerMetal)"/>

  <!-- Hammer head - wings/details -->
  <rect x="20" y="14" width="24" height="4" rx="1" fill="url(#hammerMetal)"/>
  <rect x="22" y="16" width="20" height="4" rx="1" fill="#A0A0A0"/>
  <rect x="24" y="18" width="16" height="4" rx="1" fill="url(#hammerMetal)"/>
  <rect x="26" y="20" width="12" height="4" rx="1" fill="#A0A0A0"/>
  <rect x="28" y="22" width="8" height="4" rx="1" fill="url(#hammerMetal)"/>

  <!-- Norse runes on hammer head -->
  <path d="M26 15L26 17L28 17L28 15" stroke="#FFD700" stroke-width="0.5" fill="none"/>
  <path d="M30 15L30 17L32 17L32 15" stroke="#FFD700" stroke-width="0.5" fill="none"/>
  <path d="M34 15L34 17L36 17L36 15" stroke="#FFD700" stroke-width="0.5" fill="none"/>
  <path d="M24 17L26 19L24 21" stroke="#FFD700" stroke-width="0.3" fill="none"/>
  <path d="M38 17L36 19L38 21" stroke="#FFD700" stroke-width="0.3" fill="none"/>
  <path d="M28 19L30 21L32 19" stroke="#FFD700" stroke-width="0.3" fill="none"/>
  <path d="M34 19L36 21L38 19" stroke="#FFD700" stroke-width="0.3" fill="none"/>

  <!-- Lightning bolts emanating from hammer -->
  <path d="M24 8L26 12L28 10L30 14L32 12L34 16L36 14L38 18L40 16" stroke="url(#lightningGlow)" stroke-width="2" fill="none"/>
  <path d="M22 10L24 14L26 12L28 16L30 14L32 18L34 16L36 20L38 18" stroke="#FFD700" stroke-width="1.5" fill="none" opacity="0.8"/>
  <path d="M26 6L28 10L30 8L32 12L34 10L36 14L38 12" stroke="url(#lightningGlow)" stroke-width="1" fill="none" opacity="0.6"/>
  <path d="M38 8L36 12L38 16L36 20L38 24" stroke="#FFD700" stroke-width="1" fill="none" opacity="0.7"/>

  <!-- Energy particles -->
  <circle cx="25" cy="8" r="1" fill="url(#lightningGlow)" opacity="0.8"/>
  <circle cx="39" cy="16" r="0.8" fill="url(#lightningGlow)" opacity="0.7"/>
  <circle cx="23" cy="12" r="0.6" fill="url(#lightningGlow)" opacity="0.9"/>
  <circle cx="41" cy="18" r="0.6" fill="url(#lightningGlow)" opacity="0.6"/>
  <circle cx="27" cy="6" r="0.5" fill="url(#lightningGlow)" opacity="0.8"/>
  <circle cx="37" cy="20" r="0.5" fill="url(#lightningGlow)" opacity="0.7"/>

  <!-- Hammer head metallic highlights -->
  <rect x="26" y="12" width="2" height="8" fill="#FFFFFF" opacity="0.3"/>
  <rect x="36" y="12" width="2" height="8" fill="#FFFFFF" opacity="0.3"/>
  <rect x="30" y="14" width="4" height="2" fill="#FFFFFF" opacity="0.4"/>
  <rect x="28" y="16" width="8" height="2" fill="#FFFFFF" opacity="0.2"/>
  <rect x="26" y="18" width="12" height="2" fill="#FFFFFF" opacity="0.3"/>
  <rect x="24" y="20" width="16" height="2" fill="#FFFFFF" opacity="0.2"/>

  <!-- Shadow under hammer -->
  <ellipse cx="32" cy="50" rx="8" ry="2" fill="#000000" opacity="0.3"/>
</svg>
