<svg width="64" height="64" viewBox="0 0 64 64" fill="none" xmlns="http://www.w3.org/2000/svg">
  <defs>
    <radialGradient id="visionGlow" cx="50%" cy="50%" r="70%">
      <stop offset="0%" style="stop-color:#FFD700;stop-opacity:1" />
      <stop offset="50%" style="stop-color:#FFA500;stop-opacity:0.8" />
      <stop offset="100%" style="stop-color:#FF8C00;stop-opacity:0.4" />
    </radialGradient>
    <linearGradient id="mindStone" x1="0%" y1="0%" x2="100%" y2="100%">
      <stop offset="0%" style="stop-color:#FFD700;stop-opacity:1" />
      <stop offset="50%" style="stop-color:#FFA500;stop-opacity:1" />
      <stop offset="100%" style="stop-color:#FF8C00;stop-opacity:1" />
    </linearGradient>
  </defs>

  <!-- Vision's head outline -->
  <ellipse cx="32" cy="24" rx="16" ry="14" fill="url(#visionGlow)" opacity="0.3"/>
  <ellipse cx="32" cy="26" rx="14" ry="12" fill="#000000" opacity="0.8"/>
  <ellipse cx="32" cy="28" rx="12" ry="10" fill="#2F2F2F"/>
  <ellipse cx="32" cy="30" rx="10" ry="8" fill="#000000" opacity="0.6"/>

  <!-- Mind stone on forehead -->
  <circle cx="32" cy="20" r="4" fill="url(#mindStone)"/>
  <circle cx="32" cy="20" r="2.5" fill="#000000" opacity="0.4"/>
  <circle cx="32" cy="20" r="1.5" fill="url(#visionGlow)"/>
  <circle cx="32" cy="20" r="0.8" fill="#FFFFFF"/>
  <circle cx="32" cy="20" r="0.3" fill="#FFD700"/>

  <!-- Geometric pattern eyes -->
  <polygon points="28,24 30,28 26,28" fill="url(#visionGlow)" opacity="0.8"/>
  <polygon points="36,24 38,28 34,28" fill="url(#visionGlow)" opacity="0.8"/>
  <polygon points="28,26 30,30 26,30" fill="#000000" opacity="0.6"/>
  <polygon points="36,26 38,30 34,30" fill="#000000" opacity="0.6"/>
  <circle cx="27" cy="27" r="0.5" fill="#FFFFFF"/>
  <circle cx="37" cy="27" r="0.5" fill="#FFFFFF"/>

  <!-- Geometric mind patterns -->
  <polygon points="32,16 36,24 32,28 28,24" fill="url(#visionGlow)" opacity="0.7"/>
  <polygon points="32,48 36,40 32,36 28,40" fill="url(#visionGlow)" opacity="0.7"/>
  <polygon points="16,32 24,28 28,32 24,36" fill="url(#visionGlow)" opacity="0.7"/>
  <polygon points="48,32 40,28 36,32 40,36" fill="url(#visionGlow)" opacity="0.7"/>
  <polygon points="22,22 26,26 22,30 18,26" fill="url(#mindStone)" opacity="0.8"/>
  <polygon points="42,22 46,26 42,30 38,26" fill="url(#mindStone)" opacity="0.8"/>
  <polygon points="22,42 26,38 22,34 18,38" fill="url(#mindStone)" opacity="0.8"/>
  <polygon points="42,42 46,38 42,34 38,38" fill="url(#mindStone)" opacity="0.8"/>

  <!-- Vision's body/chest area -->
  <ellipse cx="32" cy="40" rx="12" ry="10" fill="#000000" opacity="0.8"/>
  <ellipse cx="32" cy="42" rx="10" ry="8" fill="#2F2F2F"/>
  <ellipse cx="32" cy="44" rx="8" ry="6" fill="#000000" opacity="0.6"/>

  <!-- Energy circuits -->
  <path d="M24 20L26 18L28 20L30 18L32 20L34 18L36 20L38 18L40 20" stroke="url(#visionGlow)" stroke-width="0.5" fill="none" opacity="0.6"/>
  <path d="M24 44L26 46L28 44L30 46L32 44L34 46L36 44L38 46L40 44" stroke="url(#visionGlow)" stroke-width="0.5" fill="none" opacity="0.6"/>
  <path d="M20 24L18 26L20 28L18 30L20 32L18 34L20 36L18 38L20 40" stroke="url(#visionGlow)" stroke-width="0.5" fill="none" opacity="0.6"/>
  <path d="M44 24L46 26L44 28L46 30L44 32L46 34L44 36L46 38L44 40" stroke="url(#visionGlow)" stroke-width="0.5" fill="none" opacity="0.6"/>

  <!-- Geometric body patterns -->
  <polygon points="28,36 30,40 26,40" fill="url(#visionGlow)" opacity="0.5"/>
  <polygon points="36,36 38,40 34,40" fill="url(#visionGlow)" opacity="0.5"/>
  <polygon points="24,32 28,36 24,40 20,36" fill="url(#mindStone)" opacity="0.6"/>
  <polygon points="40,32 44,36 40,40 36,36" fill="url(#mindStone)" opacity="0.6"/>
</svg>
