<svg width="64" height="64" viewBox="0 0 64 64" fill="none" xmlns="http://www.w3.org/2000/svg">
  <defs>
    <radialGradient id="mechGlow" cx="50%" cy="50%" r="60%">
      <stop offset="0%" style="stop-color:#FFD700;stop-opacity:1" />
      <stop offset="50%" style="stop-color:#FFA500;stop-opacity:0.8" />
      <stop offset="100%" style="stop-color:#FF8C00;stop-opacity:0.4" />
    </radialGradient>
    <linearGradient id="mechArm" x1="0%" y1="0%" x2="100%" y2="100%">
      <stop offset="0%" style="stop-color:#C0C0C0;stop-opacity:1" />
      <stop offset="50%" style="stop-color:#A0A0A0;stop-opacity:1" />
      <stop offset="100%" style="stop-color:#808080;stop-opacity:1" />
    </linearGradient>
    <linearGradient id="tacticalGear" x1="0%" y1="0%" x2="100%" y2="100%">
      <stop offset="0%" style="stop-color:#2F2F2F;stop-opacity:1" />
      <stop offset="50%" style="stop-color:#000000;stop-opacity:1" />
      <stop offset="100%" style="stop-color:#1a1a1a;stop-opacity:1" />
    </linearGradient>
  </defs>

  <!-- Winter Soldier head/helmet -->
  <ellipse cx="32" cy="16" rx="12" ry="10" fill="url(#tacticalGear)"/>
  <ellipse cx="32" cy="18" rx="10" ry="8" fill="#000000"/>
  <ellipse cx="32" cy="20" rx="8" ry="6" fill="url(#tacticalGear)"/>

  <!-- Helmet details -->
  <path d="M24 14L26 12L28 14L30 12L32 14L34 12L36 14L38 12L40 14" stroke="#FFD700" stroke-width="0.5" fill="none" opacity="0.8"/>
  <circle cx="32" cy="16" r="1" fill="#FFD700" opacity="0.6"/>

  <!-- Eyes -->
  <ellipse cx="28" cy="18" rx="2" ry="3" fill="#000000"/>
  <ellipse cx="36" cy="18" rx="2" ry="3" fill="#000000"/>
  <ellipse cx="28" cy="18" rx="1" ry="2" fill="#FFFFFF"/>
  <ellipse cx="36" cy="18" rx="1" ry="2" fill="#FFFFFF"/>
  <circle cx="28" cy="17" r="0.3" fill="#FF0000"/>
  <circle cx="36" cy="17" r="0.3" fill="#FF0000"/>

  <!-- Tactical vest/body armor -->
  <ellipse cx="32" cy="32" rx="16" ry="14" fill="url(#tacticalGear)"/>
  <ellipse cx="32" cy="34" rx="14" ry="12" fill="#000000"/>
  <ellipse cx="32" cy="36" rx="12" ry="10" fill="url(#tacticalGear)"/>

  <!-- Mechanical arm (right side) -->
  <ellipse cx="46" cy="32" rx="6" ry="10" fill="url(#mechArm)"/>
  <ellipse cx="44" cy="34" rx="4" ry="8" fill="#000000" opacity="0.6"/>
  <ellipse cx="42" cy="36" rx="2" ry="6" fill="url(#mechArm)"/>

  <!-- Arm mechanical details -->
  <rect x="40" y="28" width="12" height="2" fill="url(#mechGlow)" opacity="0.8"/>
  <rect x="42" y="30" width="8" height="1" fill="#FFD700"/>
  <rect x="44" y="32" width="4" height="1" fill="#FFFFFF"/>
  <circle cx="46" cy="30" r="0.8" fill="url(#mechGlow)"/>
  <circle cx="48" cy="34" r="0.6" fill="url(#mechGlow)"/>
  <circle cx="50" cy="38" r="0.5" fill="url(#mechGlow)"/>

  <!-- Mechanical joints -->
  <circle cx="42" cy="28" r="1.5" fill="url(#mechArm)"/>
  <circle cx="44" cy="30" r="1" fill="#000000"/>
  <circle cx="46" cy="32" r="0.8" fill="url(#mechArm)"/>
  <circle cx="44" cy="36" r="1.2" fill="url(#mechArm)"/>
  <circle cx="42" cy="38" r="0.8" fill="#000000"/>
  <circle cx="40" cy="40" r="1" fill="url(#mechArm)"/>

  <!-- Mechanical plating -->
  <path d="M38 26L42 24L46 26L44 28L40 26L38 26Z" fill="url(#mechArm)"/>
  <path d="M40 30L44 28L48 30L46 32L42 30L40 30Z" fill="#000000" opacity="0.4"/>
  <path d="M42 34L46 32L50 34L48 36L44 34L42 34Z" fill="url(#mechArm)"/>
  <path d="M40 38L44 36L48 38L46 40L42 38L40 38Z" fill="#000000" opacity="0.4"/>
  <path d="M38 42L42 40L46 42L44 44L40 42L38 42Z" fill="url(#mechArm)"/>

  <!-- Wolf skull emblem on chest -->
  <circle cx="32" cy="32" r="3" fill="url(#mechGlow)"/>
  <circle cx="32" cy="32" r="2" fill="#000000"/>
  <circle cx="32" cy="32" r="1" fill="url(#mechGlow)"/>
  <circle cx="30" cy="30" r="0.5" fill="#FFFFFF"/>
  <circle cx="34" cy="30" r="0.5" fill="#FFFFFF"/>
  <circle cx="32" cy="34" r="0.5" fill="#FFFFFF"/>
  <path d="M30 31L32 33L34 31" stroke="#FFD700" stroke-width="0.3" fill="none"/>

  <!-- Tactical gear straps -->
  <path d="M20 30L24 28L28 30L32 28L36 30L40 28L44 30" stroke="#FFD700" stroke-width="1" fill="none" opacity="0.7"/>
  <path d="M20 36L24 34L28 36L32 34L36 36L40 34L44 36" stroke="#FFD700" stroke-width="1" fill="none" opacity="0.7"/>
  <circle cx="22" cy="30" r="0.5" fill="#FFD700"/>
  <circle cx="26" cy="30" r="0.5" fill="#FFD700"/>
  <circle cx="30" cy="30" r="0.5" fill="#FFD700"/>
  <circle cx="34" cy="30" r="0.5" fill="#FFD700"/>
  <circle cx="38" cy="30" r="0.5" fill="#FFD700"/>
  <circle cx="42" cy="30" r="0.5" fill="#FFD700"/>
</svg>
